<svg xmlns:xlink="http://www.w3.org/1999/xlink" xmlns="http://www.w3.org/2000/svg" width="13.95" height="15.7" viewBox="0 0 29 32">
<path d="M18.4953 14.6875L22.1944 10.9375L4.87044 0.8125L18.4953 14.6875ZM1.35632 5.64635e-09C0.55486 0.4375 5.46392e-09 1.25 9.83506e-09 2.25L1.30315e-07 29.8125C1.34686e-07 30.8125 0.55486 31.625 1.35632 32L17.139 16L1.35632 5.64635e-09ZM27.5581 14.125L23.9206 12L19.8517 16L23.9206 20.0625L27.6197 17.9375C28.7294 17.0625 28.7294 15 27.5581 14.125ZM4.87044 31.1875L22.1944 21.125L18.4953 17.375L4.87044 31.1875Z" fill="#4A5056"></path>
</svg>